<?xml version="1.0" encoding="UTF-8"?>
<svg id="_레이어_1" data-name="레이어_1" xmlns="http://www.w3.org/2000/svg" version="1.1" viewBox="0 0 1024 1024">
  <!-- Generator: Adobe Illustrator 30.0.0, SVG Export Plug-In . SVG Version: 2.1.1 Build 123)  -->
  <defs>
    <style>
      .st0 {
        fill: #fcfcfc;
      }

      .st1 {
        fill: #303030;
      }

      .st2 {
        fill: #fafafb;
      }

      .st3 {
        fill: #fbfbfb;
      }

      .st4 {
        fill: #fafafa;
      }

      .st5 {
        fill: #f8f8f8;
      }
    </style>
  </defs>
  <path class="st1" d="M824,475c2,2.9,2.5,4.6,3.1,7.9.2.9.3,1.7.5,2.6q.4,2.5.4,6.5h-4v-17Z"/>
  <path class="st0" d="M730.5,279.5c1.1,0,2.1,0,3.3,0,68-.9,125.5,21.7,174.9,68.8,33.5,34.3,55.1,78.7,64.6,125.4.4,1.7.7,3.5,1.1,5.2,4.6,27.7,3.6,57.8-2.5,85.1q-.6,2.7-1.2,5.5c-10.5,42.7-31.3,78.3-60.5,110.7-1,1.1-2,2.3-3.1,3.5-30,31.7-71.3,51.7-113.1,62.5-1,.3-2,.5-3.1.8-22.1,5.8-43.4,8.1-66.2,8.2-1.8,0-3.6,0-5.5,0-11.2,0-21.9-1-32.9-3.3,1.8-3.5,3.6-7,5.5-10.5q.8-1.5,1.5-3c.5-1,1-1.9,1.5-2.9.5-.9.9-1.8,1.4-2.7,1.7-2.7,3.4-4.7,5.8-6.8q2.6-.1,5.7.4c50.5,6.4,107-9.4,148-39.6,2.8-2.2,5.6-4.5,8.4-6.7.8-.6,1.6-1.3,2.4-1.9,9.6-7.8,18.7-15.6,26.3-25.3,1-1.2,2-2.4,3-3.7,19.7-25.3,32.1-52.9,40.1-83.8q.7-2.6,1.4-5.3c6.3-28.7,6-63.9-1.4-92.3,0,1.8,0,3.5-.1,5.3-1.5,51.4-20.7,98.1-57.5,134.3-26,24.1-58.8,39.9-93,48.3-1,.2-1.9.5-2.9.7-18.5,4.4-37,4.1-55.9,3.6.7-6,1.5-11.9,2.8-17.8,4.4-20.5,4.9-40.6,5-61.5,0-1.4,0-2.8,0-4.2.3-69.6-23.7-136.1-71-187.7-.8-.9-1.6-1.7-2.4-2.6-26.9-29-59.5-48.7-96.6-62,2-6.1,6.3-7.6,11.7-10.5,1-.6,2.1-1.1,3.1-1.7,18.2-9.8,35.9-16.6,56.7-16.9,1.1,0,2.1,0,3.2,0,4.7,0,8,.2,12.1,2.5q2.1,2.3,2.1,5.2c-3.1,2.1-6.1,4-9.3,5.9-.9.5-1.8,1.1-2.7,1.6-2.2,1.3-4.4,2.6-6.6,3.9,1.2,0,2.3.1,3.5.2q2.3.1,4.6.3c1.5,0,3,.2,4.6.3,5.3.9,9.3,2.7,13.1,6.5,0,2.4,0,4.8,0,7.2,1-.5,2-.9,3-1.4,9.7-3.4,22.3-2.9,31.8,1.2,4.6,3,7.9,7.2,11.1,11.7.2-.9.5-1.7.7-2.6q3.7-12.2,9.3-16c8.2-2.5,17.3-1.6,25.8-1.4h1.4c-.9-.8-1.9-1.6-2.9-2.4q-2.9-3.3-3.7-6.9.8-3.6,3.7-6.7c5.3-3.2,9.7-4.2,15.8-5.5-5.9-1.6-11.5-2.9-17.6-3.4-11.1-1.1-21.8-4.9-31.2-10.9,5.8-5.8,15-4.6,22.7-4.7Z"/>
  <path class="st0" d="M661.8,437.8c5.7,6.3,8.8,13.2,12,21,.6,1.3,1.1,2.7,1.7,4.1,24.2,58.7,29.3,125.8,10.3,186.8-.7,2.3-1.4,4.6-2.1,6.8-25.3,84.3-86.4,150.7-163,192-70.3,36.5-161.1,53.2-239.1,34.1q-2-.5-4-.9c-61-14.5-119.9-46.3-159-96.4-.6-.8-1.2-1.5-1.8-2.3-3.3-4.4-5.7-8.5-7.4-13.6.9.6,1.7,1.2,2.6,1.7,25.1,16.5,51,28.3,80.6,34.1,1.2.3,2.5.5,3.8.8,14.8,2.7,29.6,2.6,44.5,2.5,4.6,0,9.1,0,13.7,0,26,0,51.8-2.1,77.1-8.4,1.4-.4,2.9-.7,4.4-1.1,70.2-18.1,138.6-51.3,193.7-98.6q2.1-1.7,4.2-3.5c11.5-9.5,22.2-19.8,32.8-30.4.7-.7,1.4-1.4,2.1-2.1,9.6-9.5,18.4-19.5,26.8-30.1,1.9-2.3,3.8-4.5,5.6-6.8,43.9-55.2,67-119.3,60.3-189.7Z"/>
  <path class="st3" d="M523.9,155.8c1.1,0,2.1,0,3.2,0,15.3-.2,28.3,1.9,42.9,6.5,1.5.4,3.1.9,4.7,1.4,17.3,5.1,33.4,14.1,47,25.9q1.1.9,2.3,1.8c6.5,5.3,11.5,11,16.4,17.7q1.1,1.5,2.3,3.1c17.6,24.2,29.2,50.6,30.7,80.7-4.4-4.2-8-8.7-11.6-13.6-7-9.5-14.7-18-22.9-26.5-.9-.9-1.7-1.9-2.6-2.8-28.1-29.7-66-44.4-105-53.1q-1.6-.4-3.3-.8c-4.9-.8-9.7-.8-14.7-.8q-1.5,0-3.1,0c-3.2,0-6.4,0-9.6,0-2.2,0-4.4,0-6.5,0-5.3,0-10.6,0-16,0,1.8.2,3.5.5,5.4.7,52,7,99.8,27.6,138.1,63.9,1.1,1,2.2,2,3.3,3.1q2.5,2.7,2.5,5.5c-40,10.9-79.7,19.9-120.5,7.2-1.6-.5-3.2-1-4.9-1.5-21.6-7.6-40.3-20.5-58.2-34.3-1-.8-2-1.6-3.1-2.4-5.4-4.2-10.8-8.4-16.2-12.6-4.5-3.5-9.1-7-13.7-10.4-1.1-.8-2.3-1.7-3.4-2.6-2.2-1.6-4.4-3.2-6.5-4.8q-1.5-1.1-2.9-2.2c-.9-.6-1.7-1.3-2.6-1.9q-1.8-1.9-1.8-6.2c14.5-13.8,37.4-22.2,56-28.7,1.4-.5,2.8-1,4.2-1.5,4.8-1.6,9.6-2.9,14.4-4.2,1-.3,1.9-.5,2.9-.8,17.5-4.6,34.8-5.5,52.8-5.7Z"/>
  <path class="st4" d="M829.7,112.1c.4,12.3-.6,23.8-2.9,35.9-.3,1.8-.7,3.6-1,5.5-1.9,10-4.1,19.4-7.6,28.9-.4,1.4-.9,2.8-1.4,4.2-4.6,13.3-11.6,23.5-20.2,34.5-.7,1-1.4,2-2.2,3-16.4,21.2-43.7,32.9-69.5,37.2-6.3.4-12.4.4-18.7,0,7-38.2,33.6-74.7,63.1-99-24.9,13.5-48.1,33.1-63.1,57.4-.9,1.5-1.9,2.9-2.8,4.4-6.4,10.2-12.1,20.6-17.2,31.4-9.5-18.1-7.7-41.9-1.9-60.9,11.9-31.8,35.7-52.3,65.8-66.3,25.1-10.6,52.2-17.2,79.5-16.3Z"/>
  <path class="st2" d="M612,374.4c-33.9-32.2-79.3-44-125.1-43.3-2.8,0-5.6,0-8.4,0-2.8,0-5.6,0-8.4,0-1.4,0-2.7,0-4,0-55,.5-112.3,22.1-160.2,47.6-.9.5-1.9,1-2.8,1.5-33.3,17.8-64.5,38-93.5,62.3-.9.8-1.8,1.5-2.6,2.2-8.7,7.3-16.8,15.1-24.9,23.1-.7.7-1.4,1.4-2,2.1-10.4,10.4-20.6,20.9-29.9,32.3-1.2,1.4-2.3,2.8-3.4,4.2-14.6,17.4-27.8,36-38.6,56-1,1.9-2,3.8-3,5.7-14.7,26.8-25.4,55.9-26.1,86.7-.4,35.5,7.8,65.1,33.1,91.2,33.3,33.2,79.1,42,124.5,42.2q2,0,4,0c23.7,0,46.6-1.5,69.8-6.5,1.8-.4,3.6-.8,5.3-1.2,26.1-5.9,51.3-14.4,76.1-24.5,1.1-.4,2.1-.9,3.2-1.3,42.2-17.3,80.7-41.4,116.4-69.6.9-.7,1.8-1.4,2.7-2.1,10.6-8.4,20.6-17.2,30.1-26.8.7-.7,1.4-1.4,2.1-2.1,11.1-11.1,22.1-22.3,31.9-34.6.6-.8,1.3-1.6,1.9-2.4,34.9-44.2,62.7-93.8,63.7-151.3,0-1.9,0-3.8,0-5.7.3-32.1-9.2-62.2-31.8-85.7ZM421.5,411.8q19.5-41.1,36.6-48.6c20.3-6.1,44.7-1.3,64.6,4.3,1.2.3,2.5.7,3.8,1,18,5.3,33.8,14.8,45.8,29.2,2.6,5.3,2.9,8.4,2.1,14.3-5.7,11.6-17.9,17.9-28.9,23.9-1.1.6-2.2,1.2-3.4,1.8-2.4,1.3-4.8,2.6-7.2,3.9-3.5,1.9-7,3.9-10.6,5.8-21.8,12.1-44,23.4-66.2,34.8-8,4.1-15.9,8.2-23.9,12.4-1,.5-2.1,1.1-3.1,1.6-5.2,2.8-10.4,5.5-15.6,8.3-1.1.6-2.2,1.2-3.4,1.8-2.1,1.1-4.2,2.2-6.2,3.4-8.2,4.4-15.7,7.8-25.3,7q-2.9-2.9-3.4-8.1c.2-6.8,2.5-11.9,5.6-17.9.5-1.1,1.1-2.1,1.6-3.3,1.7-3.5,3.5-6.9,5.2-10.4,1.2-2.4,2.4-4.8,3.6-7.2,2.4-4.7,4.7-9.5,7.1-14.2,4-8,7.8-16,11.6-24.1,1.8-3.8,3.6-7.6,5.5-11.4,1.3-2.8,2.7-5.6,4-8.4ZM279.8,435c1.2-8.1,7.8-13.7,13.8-18.8,24.8-18.2,83.5-54,115.7-43q3,2.9,3.6,7.6c-.3,9.2-4.5,17.3-8.1,25.6-.8,1.8-1.6,3.7-2.3,5.5-2,4.8-4.1,9.6-6.2,14.4-1.6,3.7-3.2,7.5-4.8,11.2-7.7,18.1-15.7,36.2-23.8,54.2-.6,1.4-1.3,2.8-1.9,4.3-3.9,8.5-7.3,15.4-15.2,20.7q-3,.5-6.3.5c-1.1,0-2.2,0-3.3.1-7.6-1.5-11.9-7.8-16.2-13.8-5.6-7.7-11.4-15.1-17.2-22.6q-28.1-35.9-27.8-46ZM146.8,556.8c6.4-15.8,18.2-29.8,28.7-43,.6-.8,1.3-1.6,1.9-2.4q54.4-68.4,81.2-55.8c6.8,5.3,13.1,11.7,18.7,18.1v2.9h2.9c1.9,2.1,3.8,4.4,5.6,6.6,4.5,5.6,9.1,11.2,13.8,16.6,3.6,4.2,7.2,8.4,10.7,12.6q1.8,2.2,3.7,4.4,8.6,10.9,8.3,17.8c-2.3,6-4.9,8.2-10.6,10.8-5.1,1.5-10.3,2.5-15.5,3.5-1.5.3-3,.6-4.6.9-3.2.6-6.4,1.2-9.6,1.9-4.5.9-8.9,1.8-13.4,2.7-22.6,4.6-45.4,8.9-68.1,13.1-3.1.6-6.2,1.1-9.3,1.7q-34.8,6.5-42.9,2c-2.7-4.6-2.4-9.2-1.7-14.3ZM186.6,706.2c-7.9,7.3-14.3,12.7-25.4,13.4-10.5-.5-17.6-7.4-24.5-14.6-9.2-10.8-13.5-22.6-17.1-36.2-.3-.9-.5-1.8-.8-2.7-1.4-6.2-1-12.7-1-19,0-1.4,0-2.9,0-4.3,0-13.4,2.1-25.4,10.8-36,8.7-8.5,20.3-11.4,31.8-14.1,1.5-.4,3-.7,4.6-1.1,10.2-2.4,20.4-4.7,30.7-6.8,7-1.4,14-3,21-4.7,14-3.3,28-6.6,42.1-9.7,2.9-.7,5.7-1.3,8.6-2,4.2-1,8.4-1.9,12.7-2.9,1.3-.3,2.5-.6,3.8-.9q21.2-4.7,29.5.8c-.2,10.1-4.6,14.4-11.5,21.5-2.5,2.7-4.9,5.4-7.4,8.2-6.6,7.3-13.5,14.2-20.5,21.1-4.9,4.8-9.5,9.8-13.9,15-4.3,4.8-9,9.3-13.6,13.9-3.9,3.9-7.7,7.8-11.2,12-5.3,6.2-11.1,11.9-16.9,17.6-4.3,4.3-8.4,8.5-12.3,13.2-4,4.7-8.3,8.7-13,12.7-2.1,1.8-4.2,3.7-6.3,5.6ZM360.6,721.2c-15.8,20.5-54.5,24.8-78.7,28.1-11.8,1.4-23.6,1.7-35.5,1.8q-2.7,0-5.4,0-28.4-.1-37-8.7c-.9-1.1-1.7-2.2-2.6-3.4l-1.4-1.4c-1.4-11.5,4.5-19.8,11.4-28.6,1.5-1.9,3-3.7,4.6-5.5q1.2-1.5,2.5-3c6.8-8.2,13.9-16.1,21.2-23.8,3.7-3.9,7.3-7.9,11-11.8.7-.8,1.5-1.6,2.2-2.4,3.9-4.2,7.7-8.5,11.5-12.9,3.8-4.4,7.9-8.6,12.1-12.7,2.6-2.7,5.1-5.5,7.5-8.3,3.2-3.7,6.5-7.3,10-10.8,3.5-3.4,6.8-7,10-10.7,4.4-5.2,9.2-9.9,14-14.7q2.8-2.7,5.7-6.6c5.1-6.2,10.3-8.8,18.4-7.4,6.6,5.3,8.2,9.2,9.2,17.5q.2,1.5.4,3.1c.4,3.3.8,6.6,1.2,9.9.3,2.3.6,4.6.9,6.9.8,6,1.5,11.9,2.2,17.9.7,5.7,1.4,11.4,2.1,17.1,1.2,9.7,2.4,19.4,3.5,29.1.4,3.3.9,6.7,1.3,10,1.5,10.3,3.1,22-2.2,31.4ZM531.9,621.3c-11.6,17.5-26.9,32.1-43.7,44.5-.9.7-1.8,1.4-2.7,2.1-15.6,11.8-31.6,21.9-48.9,30.9-.9.5-1.8.9-2.7,1.4-11.3,5.9-21.6,10.6-34.6,8.6-8.2-5.2-11.7-11.3-14.2-20.5-.4-1.7-.7-3.4-1.1-5.2-.2-.9-.4-1.9-.6-2.9-.6-3.1-1.3-6.1-1.9-9.2-.2-1-.4-2.1-.7-3.2-3.5-16.7-6.4-33.4-9-50.3-.9-5.9-2-11.8-3.1-17.7q-4.6-23-1-30.1c2.4-3.1,4.9-5.5,8.5-7.1,7.9-.5,15,0,22.7,1.8,1.8.4,3.6.9,5.5,1.3,1.9.5,3.8.9,5.7,1.4q2.7.6,5.5,1.3c10.4,2.5,20.7,5,31.1,7.6,6.9,1.7,13.8,3.4,20.7,5,2,.5,4,1,6,1.4,3,.7,6,1.4,9.1,2.2q40.6,9.6,51.8,20.8c1.3,6.5.9,9.8-2.2,15.7ZM573.9,561.2c-6.1,7.1-13.3,13.3-22.5,15.7-10.4.8-20.3-.4-30.5-2.3-1.4-.3-2.8-.5-4.2-.8-4.7-.9-9.4-1.7-14.1-2.6-1.7-.3-3.5-.6-5.2-1-24.7-4.6-49.3-9.6-73.8-15.3-3.8-.9-7.6-1.7-11.5-2.6-2.1-.5-4.2-1-6.2-1.4-1.7-.4-3.4-.8-5.2-1.2-4.7-1.7-6.9-3.4-10-7.3q-.2-3.5,1.4-7.2c6.3-5.9,13-9.9,20.7-13.8,1.2-.6,2.4-1.2,3.6-1.9,10.4-5.4,21-10.4,31.6-15.4,10.5-5,20.8-10.1,31.2-15.3,16.4-8.3,33-16,49.7-23.7,10.3-4.7,20.5-9.6,30.7-14.5,1.1-.5,2.3-1.1,3.4-1.7,1-.5,2-.9,3-1.4,8-3.6,18.8-5,27.1-1.3,5.2,4,6.9,8.3,8.5,14.5,4.1,34.7-6.4,72.9-27.7,100.5Z"/>
  <path class="st0" d="M190.2,340.6c16.2,11.8,30.5,25.6,41.2,42.7-4.2,2.1-6.7.7-11.2-.5-25.6-6.8-53-6.6-77.7,3.4-1.2.5-2.3.9-3.5,1.4-5.9,2.4-11.8,4.9-17.7,7.5-14.9,6.4-32.2,8.5-48,4.2-10.3-4.8-18.4-12.2-23.3-22.5-3.6-10.3-4.5-21.6-.8-32,8-14.4,20.5-23.5,35.8-28.9,36.4-8.5,75.1,4.2,105.1,24.7Z"/>
  <path class="st3" d="M252.8,233c18.5,14.9,25.9,39.8,28.9,62.7,1.5,27.3-.5,55.5-12.9,80.3h-2.9c-.3-1.3-.6-2.5-.9-3.8-7.7-30-27.7-47.4-52.5-64.5-12.2-8.5-22.9-17.3-27.8-31.9-2.1-12-1.9-23.7,4.3-34.3,6.6-8.9,15.1-15.4,25.8-18.5,14.7-1.8,25.9,1.4,38,10Z"/>
  <path class="st5" d="M177.3,407.2c1.5,0,3,0,4.6,0,7.5,0,13.9.3,20.9,3.3-2,4-4.7,4.7-8.7,6.6-12.9,6.9-20.3,15.9-27.5,28.5-5,7.2-11.5,10.8-19.7,13.7-8.7,1.1-13.2-.8-20.1-5.7-4.5-5.1-5.2-10.1-5-16.6,1.6-8.1,6.2-13.9,12.5-18.9,13.7-8.7,27-11,43-10.8Z"/>
</svg>